<svg xmlns="http://www.w3.org/2000/svg" xmlns:xlink="http://www.w3.org/1999/xlink"><symbol id="icon-btn-arrow_down" viewBox="0 0 18 11"><path d="M1 1l8 8 8-8" stroke="#1F1E25" stroke-width="2"/></symbol><symbol id="icon-btn-arrow_up" viewBox="0 0 18 11"><path d="M17 10L9 2l-8 8" stroke="#0A1E32" stroke-width="2"/></symbol><symbol id="icon-btn_minus" viewBox="0 0 16 2">
<line y1="1" x2="16" y2="1" stroke="#1F1E25" stroke-width="2"/>
</symbol><symbol id="icon-btn_plus" viewBox="0 0 16 16">
<path d="M0 8H16M8 0V16" stroke="#1F1E25" stroke-width="2"/>
</symbol><symbol id="icon-cards" viewBox="0 0 34 30"><path d="M32.702 4.397L11.88.035a1.642 1.642 0 00-1.94 1.25l-.396 2.517 24.026 5.033.396-2.517a1.626 1.626 0 00-1.263-1.92zM23.945 9.368a1.66 1.66 0 00-2.034-1.139l-3.953 1.087-9.32-1.953-1.024 4.794-6.404 1.759a1.639 1.639 0 00-1.15 2.013l3.609 12.873a1.66 1.66 0 002.034 1.139l20.7-5.687a1.639 1.639 0 001.15-2.013l-.619-2.21 2.322.486a1.641 1.641 0 001.94-1.25l1.47-6.87-8.363-1.752-.358-1.277zm2.39 6.543l.513-2.395a.676.676 0 01.798-.514l2.42.507a.669.669 0 01.52.79l-.513 2.395a.676.676 0 01-.798.514l-2.42-.507a.67.67 0 01-.52-.79zM1.572 15.2l20.7-5.686a.312.312 0 01.376.21l.705 2.517L2.064 18.09l-.706-2.517a.306.306 0 01.213-.372zm24.685 7.396a.295.295 0 01-.03.229.296.296 0 01-.183.143l-20.7 5.687a.312.312 0 01-.376-.21l-2.105-7.51 21.289-5.847 2.105 7.508z" fill="#565EF5"/><path d="M8.688 23.11a.677.677 0 00-.83-.464l-2.417.665a.668.668 0 00-.469.82l.671 2.393c.1.354.472.563.83.464l2.417-.664a.668.668 0 00.47-.82l-.672-2.393z" fill="#565EF5"/></symbol><symbol id="icon-checkbox_checked" viewBox="0 0 8 6"><path d="M1 2.143L3.5 5 7 1" stroke="#F6F7FF"/></symbol><symbol id="icon-close" viewBox="0 0 18 18"><path d="M1 1l16 16m0-16L1 17" stroke="#1F1E25" stroke-width="2" stroke-linecap="round" stroke-linejoin="round"/></symbol><symbol id="icon-facebook" viewBox="0 0 9 16"><path d="M6 9.2h2.143L9 6H6V4.4c0-.824 0-1.6 1.714-1.6H9V.112A25.85 25.85 0 006.551 0c-2.327 0-3.98 1.326-3.98 3.76V6H0v3.2h2.571V16H6V9.2z" fill="#1F1E25"/></symbol><symbol id="icon-footer-mobile" viewBox="0 0 10 16"><path d="M8.837 0H1.163C.523 0 0 .486 0 1.08V14.92C0 15.514.523 16 1.163 16h7.674c.64 0 1.163-.486 1.163-1.08V1.08C10 .487 9.477 0 8.837 0zM3.772.779h2.456c.077 0 .14.058.14.131 0 .072-.063.13-.14.13H3.772c-.077 0-.14-.058-.14-.13 0-.073.063-.131.14-.131zM5 15.459c-.321 0-.581-.241-.581-.54 0-.3.26-.54.581-.54.321 0 .581.24.581.54 0 .299-.26.54-.581.54zM9.19 14H.81V1.714h8.38V14z" fill="#1F1E25"/></symbol><symbol id="icon-footer-phone" viewBox="0 0 16 16"><path d="M16 11.928v3.143a.888.888 0 01-.828.887c-.388.027-.705.041-.95.041C6.366 16 0 9.632 0 1.778c0-.246.013-.563.04-.951A.889.889 0 01.929 0H4.07a.444.444 0 01.443.4c.02.204.039.367.056.49a12.356 12.356 0 001.074 3.557c.085.178.03.39-.13.504L3.594 6.32a11.596 11.596 0 006.084 6.084l1.368-1.915a.41.41 0 01.51-.132c1.124.534 2.323.895 3.555 1.07.124.018.286.038.489.058a.444.444 0 01.399.442z" fill="#1F1E25"/></symbol><symbol id="icon-instagram" viewBox="0 0 16 16"><path d="M8 0c2.174 0 2.445.008 3.298.048.852.04 1.432.174 1.942.372a3.9 3.9 0 011.418.922c.406.4.721.884.922 1.418.198.51.332 1.09.372 1.942C15.99 5.555 16 5.826 16 8s-.008 2.445-.048 3.298c-.04.852-.174 1.432-.372 1.942a3.907 3.907 0 01-.922 1.418c-.4.406-.884.721-1.418.922-.51.198-1.09.332-1.942.372C10.445 15.99 10.174 16 8 16s-2.445-.008-3.298-.048c-.852-.04-1.432-.174-1.942-.372a3.911 3.911 0 01-1.418-.922A3.923 3.923 0 01.42 13.24c-.198-.51-.332-1.09-.372-1.942C.01 10.445 0 10.174 0 8s.008-2.445.048-3.298C.088 3.85.222 3.27.42 2.76c.2-.534.515-1.018.922-1.418.4-.407.884-.721 1.418-.922C3.27.222 3.85.088 4.702.048 5.555.01 5.826 0 8 0zm0 4a4 4 0 100 8 4 4 0 000-8zm5.2-.2a1 1 0 10-2 0 1 1 0 002 0zM8 5.6a2.4 2.4 0 110 4.8 2.4 2.4 0 010-4.8z" fill="#1F1E25"/></symbol><symbol id="icon-list-item" viewBox="0 0 13 10"><path d="M1 4l5.238 5L12 1" stroke="#1F1E25" stroke-width="2" stroke-linecap="round" stroke-linejoin="round"/></symbol><symbol id="icon-logo-big" viewBox="0 0 151 31"><path d="M52.1 15h-3.02V3.24h-3.5l-.26 2a70.91 70.91 0 01-.28 2.2 66.072 66.072 0 01-.3 2.1 39.205 39.205 0 01-.32 1.74c-.173.827-.407 1.533-.7 2.12-.28.587-.673 1.033-1.18 1.34-.493.307-1.14.46-1.94.46-.52 0-1-.073-1.44-.22V12.5c.173.053.34.1.5.14.173.04.36.06.56.06.387 0 .68-.2.88-.6.213-.413.427-1.18.64-2.3a90.4 90.4 0 00.34-2c.147-.907.307-1.967.48-3.18.187-1.227.36-2.527.52-3.9h9.02V15zM55.702.72h2.72v6.9c0 .333-.006.707-.02 1.12l-.04 1.22c-.013.387-.026.727-.04 1.02-.013.28-.026.473-.04.58h.06l6.6-10.84h3.62V15h-2.7V8.14c0-.36.007-.753.02-1.18l.04-1.26c.027-.4.047-.747.06-1.04.027-.307.047-.507.06-.6h-.08L59.342 15h-3.64V.72zm25.485 0v2.5h-6V15h-3.02V.72h9.02zM90.712 15l-1.04-3.4h-5.2l-1.04 3.4h-3.26L85.212.66h3.7L93.972 15h-3.26zm-1.76-5.94l-1.04-3.32a76.767 76.767 0 00-.26-.86c-.107-.347-.213-.7-.32-1.06-.107-.36-.194-.673-.26-.94-.067.267-.16.6-.28 1-.107.387-.213.76-.32 1.12a10.24 10.24 0 01-.22.74l-1.02 3.32h3.72zM101.503 15V.72h9.02v2.5h-6V6.2h1.2c1.347 0 2.447.187 3.3.56.867.373 1.507.887 1.92 1.54.413.653.62 1.4.62 2.24 0 1.413-.473 2.513-1.42 3.3-.933.773-2.427 1.16-4.48 1.16h-4.16zm3.02-2.48h1.02c.92 0 1.64-.147 2.16-.44.533-.293.8-.807.8-1.54 0-.76-.287-1.26-.86-1.5s-1.353-.36-2.34-.36h-.78v3.84zm13.974-8.66c1.467 0 2.587.32 3.36.96.787.627 1.18 1.593 1.18 2.9V15h-2.08l-.58-1.48h-.08c-.467.587-.96 1.013-1.48 1.28-.52.267-1.233.4-2.14.4-.973 0-1.78-.28-2.42-.84-.64-.573-.96-1.447-.96-2.62 0-1.16.407-2.013 1.22-2.56.813-.56 2.033-.867 3.66-.92l1.9-.06v-.48c0-.573-.153-.993-.46-1.26-.293-.267-.707-.4-1.24-.4s-1.053.08-1.56.24c-.507.147-1.013.333-1.52.56l-.98-2.02a8.586 8.586 0 011.94-.72 9.54 9.54 0 012.24-.26zm1.58 6.08l-1.16.04c-.96.027-1.627.2-2 .52s-.56.74-.56 1.26c0 .453.133.78.4.98.267.187.613.28 1.04.28.64 0 1.18-.187 1.62-.56.44-.387.66-.927.66-1.62v-.9zm8.99-5.86v4.2h4.16v-4.2h2.98V15h-2.98v-4.5h-4.16V15h-2.98V4.08h2.98zm17.423 0h3.28l-4.32 5.24 4.7 5.68h-3.38l-4.46-5.54V15h-2.98V4.08h2.98v5.3l4.18-5.3zM43.922 21.66h1.084V28h-1.084v-4.623L40.998 28h-1.084v-6.34h1.084v4.63l2.924-4.63zM51.926 28h-1.084v-2.707H47.93V28h-1.09v-6.34h1.09v2.748h2.912V21.66h1.084V28zm6.457-5.46h-2.127V28h-1.084v-5.46h-2.086v-.88h5.297v.88zm3.217 5.577c-.86 0-1.559-.281-2.098-.844-.54-.566-.809-1.322-.809-2.267v-.2c0-.628.12-1.189.358-1.681a2.815 2.815 0 011.008-1.16 2.535 2.535 0 011.406-.422c.824 0 1.465.271 1.922.814.457.543.685 1.32.685 2.332v.452h-4.295c.016.625.198 1.13.545 1.517.352.383.797.574 1.336.574.383 0 .707-.078.973-.234.266-.156.498-.363.697-.621l.662.516c-.531.816-1.328 1.224-2.39 1.224zm-.135-5.683c-.438 0-.805.16-1.102.48-.297.316-.48.762-.55 1.336h3.175v-.082c-.031-.55-.18-.977-.445-1.277-.266-.305-.625-.457-1.078-.457zm9.222 2.466c0 .965-.22 1.743-.662 2.332-.441.59-1.039.885-1.793.885-.77 0-1.375-.244-1.816-.732v3.052h-1.084V21.66h.99l.053.703c.441-.547 1.055-.82 1.84-.82.762 0 1.363.287 1.804.861.446.575.668 1.373.668 2.397v.1zm-1.084-.123c0-.715-.152-1.279-.456-1.693-.305-.414-.723-.621-1.254-.621-.657 0-1.149.29-1.477.873v3.03c.324.577.82.866 1.488.866.52 0 .932-.205 1.237-.615.308-.414.462-1.027.462-1.84zM77.25 28h-1.084v-2.707h-2.912V28h-1.09v-6.34h1.09v2.748h2.912V21.66h1.084V28zm4.377.117c-.86 0-1.559-.281-2.098-.844-.539-.566-.808-1.322-.808-2.267v-.2c0-.628.119-1.189.357-1.681a2.815 2.815 0 011.008-1.16 2.536 2.536 0 011.406-.422c.824 0 1.465.271 1.922.814.457.543.686 1.32.686 2.332v.452h-4.295c.015.625.197 1.13.545 1.517.351.383.797.574 1.336.574.382 0 .707-.078.972-.234.266-.156.498-.363.698-.621l.662.516c-.532.816-1.329 1.224-2.391 1.224zm-.135-5.683c-.437 0-.805.16-1.101.48-.297.316-.48.762-.551 1.336h3.176v-.082c-.032-.55-.18-.977-.446-1.277-.265-.305-.625-.457-1.078-.457zm8.508.105h-2.127V28h-1.084v-5.46h-2.086v-.88H90v.88zm3.31 2.28h-2.859v-.885h2.86v.884zm3.844-2.796c.797 0 1.434.268 1.91.803.48.531.721 1.233.721 2.104v.1c0 .597-.115 1.132-.346 1.605-.23.468-.562.834-.996 1.095-.43.258-.925.387-1.488.387-.852 0-1.537-.283-2.057-.85-.52-.57-.779-1.333-.779-2.29v-.528c0-1.332.246-2.39.738-3.176.496-.785 1.227-1.263 2.192-1.435.547-.098.916-.217 1.107-.358a.68.68 0 00.287-.58h.891c0 .489-.111.87-.334 1.143-.219.273-.57.467-1.055.58l-.808.182c-.645.152-1.13.41-1.453.773-.32.36-.53.84-.627 1.442.574-.665 1.273-.997 2.097-.997zm-.21.891c-.532 0-.954.18-1.266.54-.313.355-.469.849-.469 1.482v.093c0 .68.156 1.219.469 1.617.316.395.742.592 1.277.592.54 0 .965-.199 1.277-.597.313-.399.47-.98.47-1.746 0-.598-.159-1.077-.475-1.436-.313-.363-.74-.545-1.284-.545zM104.917 28c-.063-.125-.113-.348-.152-.668-.504.523-1.106.785-1.805.785-.625 0-1.139-.176-1.541-.527a1.726 1.726 0 01-.598-1.348c0-.66.25-1.172.75-1.535.504-.367 1.211-.55 2.121-.55h1.055v-.499c0-.379-.113-.68-.34-.902-.226-.227-.56-.34-1.002-.34-.386 0-.711.098-.972.293-.262.195-.393.432-.393.709h-1.09c0-.316.111-.621.334-.914.227-.297.531-.531.914-.703a3.098 3.098 0 011.272-.258c.73 0 1.302.184 1.717.55.414.364.628.866.644 1.507v2.918c0 .582.074 1.044.223 1.388V28h-1.137zm-1.799-.826c.34 0 .662-.088.967-.264.305-.176.525-.404.662-.685v-1.301h-.85c-1.328 0-1.992.389-1.992 1.166 0 .34.114.605.34.797.227.191.518.287.873.287zm9.592.826h-1.084v-2.707h-2.912V28h-1.09v-6.34h1.09v2.748h2.912V21.66h1.084V28zm3.721-2.701h-.791V28h-1.09v-6.34h1.09v2.684h.709l2.132-2.684h1.313l-2.508 3.047 2.72 3.293h-1.377l-2.197-2.701z" fill="#1F1E25"/><path d="M.854 24.04L14.374.53l3.608-.015L30.92 24.027l-2.065 4.522-25.938.024z" fill="#f6f7ff"/><path d="M2.35 23.547L14.968 1.591l1.842-.003-11.756 21.95zM7.432 21.307l-1.192 2.26 15.89-.035-1.16-2.192zM11.346 20.265l4.53-8.249 4.518 8.23z" fill="#2c36f2"/><path d="M8.028 20.249h2.14l7.53-13.662 10.78 20.267 1.258-2.748L17.682 2.203z" fill="#2c36f2"/><path d="M2.251 24.616l1.318 2.866h24.064L17.678 8.737l-1.21 2.179 7.499 13.73z" fill="#2c36f2"/></symbol><symbol id="icon-logo-full" viewBox="0 0 150 27"><path d="M51.1 26h-3.02V14.24h-3.5l-.26 2c-.08.72-.173 1.453-.28 2.2a66.096 66.096 0 01-.3 2.1 39.205 39.205 0 01-.32 1.74c-.173.827-.407 1.533-.7 2.12-.28.587-.673 1.033-1.18 1.34-.493.307-1.14.46-1.94.46-.52 0-1-.073-1.44-.22V23.5c.173.053.34.1.5.14.173.04.36.06.56.06.387 0 .68-.2.88-.6.213-.413.427-1.18.64-2.3a90.4 90.4 0 00.34-2c.147-.907.307-1.967.48-3.18.187-1.227.36-2.527.52-3.9h9.02V26zm3.602-14.28h2.72v6.9c0 .333-.006.707-.02 1.12l-.04 1.22c-.013.387-.026.727-.04 1.02-.013.28-.026.473-.04.58h.06l6.6-10.84h3.62V26h-2.7v-6.86c0-.36.007-.753.02-1.18l.04-1.26c.027-.4.047-.747.06-1.04.027-.307.047-.507.06-.6h-.08L58.342 26h-3.64V11.72zm25.485 0v2.5h-6V26h-3.02V11.72h9.02zM89.712 26l-1.04-3.4h-5.2l-1.04 3.4h-3.26l5.04-14.34h3.7L92.972 26h-3.26zm-1.76-5.94l-1.04-3.32a76.767 76.767 0 00-.26-.86c-.107-.347-.213-.7-.32-1.06a22.88 22.88 0 01-.26-.94c-.067.267-.16.6-.28 1-.107.387-.213.76-.32 1.12a10.24 10.24 0 01-.22.74l-1.02 3.32h3.72zM100.503 26V11.72h9.02v2.5h-6v2.98h1.2c1.347 0 2.447.187 3.3.56.867.373 1.507.887 1.92 1.54.413.653.62 1.4.62 2.24 0 1.413-.473 2.513-1.42 3.3-.933.773-2.427 1.16-4.48 1.16h-4.16zm3.02-2.48h1.02c.92 0 1.64-.147 2.16-.44.533-.293.8-.807.8-1.54 0-.76-.287-1.26-.86-1.5s-1.353-.36-2.34-.36h-.78v3.84zm13.974-8.66c1.467 0 2.587.32 3.36.96.787.627 1.18 1.593 1.18 2.9V26h-2.08l-.58-1.48h-.08c-.467.587-.96 1.013-1.48 1.28-.52.267-1.233.4-2.14.4-.973 0-1.78-.28-2.42-.84-.64-.573-.96-1.447-.96-2.62 0-1.16.407-2.013 1.22-2.56.813-.56 2.033-.867 3.66-.92l1.9-.06v-.48c0-.573-.153-.993-.46-1.26-.293-.267-.707-.4-1.24-.4s-1.053.08-1.56.24c-.507.147-1.013.333-1.52.56l-.98-2.02a8.583 8.583 0 011.94-.72 9.542 9.542 0 012.24-.26zm1.58 6.08l-1.16.04c-.96.027-1.627.2-2 .52s-.56.74-.56 1.26c0 .453.133.78.4.98.267.187.613.28 1.04.28.64 0 1.18-.187 1.62-.56.44-.387.66-.927.66-1.62v-.9zm8.99-5.86v4.2h4.16v-4.2h2.98V26h-2.98v-4.5h-4.16V26h-2.98V15.08h2.98zm17.423 0h3.28l-4.32 5.24 4.7 5.68h-3.38l-4.46-5.54V26h-2.98V15.08h2.98v5.3l4.18-5.3z" fill="#1F1E25"/><path d="M.434 22.255L13.544.468 17.04.454l12.544 21.788-2.002 4.19-25.149.023z" fill="#f6f7ff"/><path d="M1.884 21.797L14.118 1.451l1.786-.003L4.505 21.79zM6.812 19.721l-1.157 2.094 15.407-.031-1.125-2.032zM10.607 18.756l4.392-7.644 4.38 7.627z" fill="#2c36f2"/><path d="M7.39 18.74h2.074l7.3-12.66 10.454 18.782 1.219-2.547L16.749 2.018z" fill="#2c36f2"/><path d="M1.788 22.787l1.278 2.657h23.332L16.745 8.073l-1.172 2.02 7.27 12.722z" fill="#2c36f2"/></symbol><symbol id="icon-map-tag" viewBox="0 0 37 42">
<path d="M30.8744 29.2842L18.5 41L6.12556 29.2842C3.67816 26.967 2.01147 24.0148 1.33625 20.8008C0.661026 17.5869 1.0076 14.2555 2.33214 11.228C3.65668 8.20049 5.89969 5.61285 8.77755 3.79229C11.6554 1.97172 15.0388 1 18.5 1C21.9612 1 25.3446 1.97172 28.2225 3.79229C31.1003 5.61285 33.3433 8.20049 34.6679 11.228C35.9924 14.2555 36.339 17.5869 35.6637 20.8008C34.9885 24.0148 33.3218 26.967 30.8744 29.2842Z" fill="#2C36F2"/>
<path d="M19.5179 10.2308H17.8214L10.3564 22.4884H12.562L13.5799 20.7373L19.5179 10.2308Z" fill="#2C36F2"/>
<path d="M11.3744 24.5897H25.6256L19.5179 13.733L18.5 15.4841L21.5538 20.7373L22.5718 22.4884H12.562H10.3564L11.3744 24.5897Z" fill="#2C36F2"/>
<path d="M22.5718 22.4884L21.5538 20.7373H15.4462H13.5799L12.562 22.4884H22.5718Z" fill="#2C36F2"/>
<path d="M25.6256 24.5897L26.6436 22.4884L19.5179 10.2308L13.5799 20.7373H15.4462L18.5 15.4841L19.5179 13.733L25.6256 24.5897Z" fill="#2C36F2"/>
<path d="M18.5 15.4841L15.4462 20.7373H21.5538L18.5 15.4841Z" fill="#2C36F2"/>
<path d="M25.6256 24.5897H11.3744L10.3564 22.4884M25.6256 24.5897L26.6436 22.4884L19.5179 10.2308M25.6256 24.5897L19.5179 13.733L18.5 15.4841M19.5179 10.2308H17.8214L10.3564 22.4884M19.5179 10.2308L13.5799 20.7373M10.3564 22.4884H12.562M18.5 15.4841L15.4462 20.7373M18.5 15.4841L21.5538 20.7373M15.4462 20.7373H21.5538M15.4462 20.7373H13.5799M21.5538 20.7373L22.5718 22.4884H12.562M13.5799 20.7373L12.562 22.4884M30.8744 29.2842L18.5 41L6.12556 29.2842C3.67816 26.967 2.01147 24.0148 1.33625 20.8008C0.661026 17.5869 1.0076 14.2555 2.33214 11.228C3.65668 8.20049 5.89969 5.61285 8.77755 3.79229C11.6554 1.97172 15.0388 1 18.5 1C21.9612 1 25.3446 1.97172 28.2225 3.79229C31.1003 5.61285 33.3433 8.20049 34.6679 11.228C35.9924 14.2555 36.339 17.5869 35.6637 20.8008C34.9885 24.0148 33.3218 26.967 30.8744 29.2842Z" stroke="#F6F7FF" stroke-width="0.5"/>
</symbol><symbol id="icon-menu-close" viewBox="0 0 16 12"><path d="M1 1l12 12m0-12L1 13" stroke="#1F1E25" stroke-width="2" stroke-linecap="round" stroke-linejoin="round"/></symbol><symbol id="icon-menu-open" viewBox="0 0 16 12"><path d="M0 1h16M0 6h16M0 11h16" stroke="#1F1E25" stroke-linejoin="round"/></symbol><symbol id="icon-password" viewBox="0 0 22 12">
<path d="M8.29878 12L6.33638 11.4893L7.13618 8.59185C5.93899 8.16352 4.82634 7.5393 3.84654 6.7463L1.65854 8.86987L0.220528 7.47486L2.40955 5.35228C1.17386 3.91662 0.343585 2.19431 0 0.353927L2 0C2.77134 4.14262 6.50711 7.28557 11 7.28557C15.4919 7.28557 19.2287 4.14262 20 0L22 0.352941C21.6569 2.19358 20.827 3.91624 19.5915 5.35228L21.7795 7.47486L20.3415 8.86987L18.1535 6.7463C17.1737 7.5393 16.061 8.16352 14.8638 8.59185L15.6636 11.4903L13.7012 12L12.9004 9.10155C11.6426 9.31063 10.3574 9.31063 9.0996 9.10155L8.29878 12Z" fill="#1F1E25"/>
</symbol><symbol id="icon-phone" viewBox="0 0 20 34"><path d="M17.675 0H2.325C1.047 0 0 1.033 0 2.296v29.407C0 32.966 1.047 34 2.325 34h15.35C18.953 34 20 32.968 20 31.703V2.296C20 1.033 18.953 0 17.675 0zM7.545 1.655h4.91a.28.28 0 01.282.28.28.28 0 01-.282.277h-4.91a.28.28 0 01-.282-.278.28.28 0 01.282-.279zM10 32.852a1.155 1.155 0 01-1.163-1.15c0-.635.52-1.148 1.163-1.148.642 0 1.163.513 1.163 1.149 0 .635-.52 1.149-1.163 1.149zm8.382-3.102H1.618V3.642h16.764V29.75z" fill="#565EF5"/></symbol><symbol id="icon-security" viewBox="0 0 28 34"><path d="M27.923 5.312C22.155 5.312 17.736 3.655 14 0 10.262 3.655 5.843 5.312.076 5.312.077 14.83-1.881 28.463 13.999 34c15.882-5.537 13.924-19.17 13.924-28.688zM12.846 22.06l-4.639-4.666 2.077-2.089 2.562 2.577 4.87-4.897 2.076 2.089-6.946 6.986z" fill="#565EF5"/></symbol><symbol id="icon-signin" viewBox="0 0 20 22"><path d="M2.222 14.3h2.222v5.5h13.334V2.2H4.444v5.5H2.222V1.1c0-.292.117-.572.326-.778.208-.206.49-.322.785-.322H18.89c.295 0 .577.116.786.322.208.206.325.486.325.778v19.8c0 .292-.117.572-.325.778a1.117 1.117 0 01-.786.322H3.333c-.294 0-.577-.116-.785-.322a1.095 1.095 0 01-.326-.778v-6.6zM8.89 9.9V6.6l5.555 4.4-5.555 4.4v-3.3H0V9.9h8.889z" fill="#1F1E25"/></symbol><symbol id="icon-twitter" viewBox="0 0 16 13"><path d="M16 1.543c-.6.265-1.236.44-1.886.516A3.292 3.292 0 0015.558.244a6.564 6.564 0 01-2.085.796A3.283 3.283 0 007.88 4.032 9.325 9.325 0 011.114.604a3.28 3.28 0 001.016 4.38 3.273 3.273 0 01-1.487-.41v.04a3.281 3.281 0 002.633 3.218c-.484.13-.99.15-1.483.056a3.283 3.283 0 003.066 2.279A6.59 6.59 0 010 11.525 9.29 9.29 0 005.031 13c6.039 0 9.341-4.999 9.341-9.334 0-.141-.004-.284-.01-.424A6.667 6.667 0 0016 1.544z" fill="#1F1E25"/></symbol><symbol id="icon-vault" viewBox="0 0 34 33"><path d="M4.207 26.063h25.585V4.366H4.207v21.697zm8.661-14.267a3.445 3.445 0 013.338 2.576h7.521v1.684h-7.521a3.445 3.445 0 01-3.338 2.577c-1.899 0-3.443-1.534-3.443-3.419s1.544-3.418 3.443-3.418z" fill="#2C36F2"/><path d="M0 0v30.429h2.48V33h2.968v-2.571h23.104V33h2.968v-2.571H34V0H0zm2.512 27.747V2.682h28.976v25.065H2.512z" fill="#2C36F2"/></symbol><symbol id="icon-youtube" viewBox="0 0 16 13"><path d="M15.634 2.03C16 3.478 16 6.5 16 6.5s0 3.023-.366 4.47c-.203.8-.797 1.43-1.55 1.643C12.717 13 8 13 8 13s-4.714 0-6.084-.387c-.756-.216-1.35-.845-1.55-1.643C0 9.523 0 6.5 0 6.5s0-3.022.366-4.47c.203-.8.797-1.43 1.55-1.643C3.286 0 8 0 8 0s4.717 0 6.084.387c.756.216 1.35.845 1.55 1.643zM6.4 9.344L11.2 6.5 6.4 3.656v5.688z" fill="#1F1E25"/></symbol></svg>