<svg xmlns="http://www.w3.org/2000/svg" xmlns:xlink="http://www.w3.org/1999/xlink"><symbol id="icon-btn-arrow_down" viewBox="0 0 18 11"><path d="M1 1l8 8 8-8" stroke="#1F1E25" stroke-width="2"/></symbol><symbol id="icon-btn-arrow_up" viewBox="0 0 18 11"><path d="M17 10L9 2l-8 8" stroke="#0A1E32" stroke-width="2"/></symbol><symbol id="icon-btn_minus" viewBox="0 0 16 2">
<line y1="1" x2="16" y2="1" stroke="#1F1E25" stroke-width="2"/>
</symbol><symbol id="icon-btn_plus" viewBox="0 0 16 16">
<path d="M0 8H16M8 0V16" stroke="#1F1E25" stroke-width="2"/>
</symbol><symbol id="icon-cards" viewBox="0 0 34 30"><path d="M32.702 4.397L11.88.035a1.642 1.642 0 00-1.94 1.25l-.396 2.517 24.026 5.033.396-2.517a1.626 1.626 0 00-1.263-1.92zM23.945 9.368a1.66 1.66 0 00-2.034-1.139l-3.953 1.087-9.32-1.953-1.024 4.794-6.404 1.759a1.639 1.639 0 00-1.15 2.013l3.609 12.873a1.66 1.66 0 002.034 1.139l20.7-5.687a1.639 1.639 0 001.15-2.013l-.619-2.21 2.322.486a1.641 1.641 0 001.94-1.25l1.47-6.87-8.363-1.752-.358-1.277zm2.39 6.543l.513-2.395a.676.676 0 01.798-.514l2.42.507a.669.669 0 01.52.79l-.513 2.395a.676.676 0 01-.798.514l-2.42-.507a.67.67 0 01-.52-.79zM1.572 15.2l20.7-5.686a.312.312 0 01.376.21l.705 2.517L2.064 18.09l-.706-2.517a.306.306 0 01.213-.372zm24.685 7.396a.295.295 0 01-.03.229.296.296 0 01-.183.143l-20.7 5.687a.312.312 0 01-.376-.21l-2.105-7.51 21.289-5.847 2.105 7.508z" fill="#565EF5"/><path d="M8.688 23.11a.677.677 0 00-.83-.464l-2.417.665a.668.668 0 00-.469.82l.671 2.393c.1.354.472.563.83.464l2.417-.664a.668.668 0 00.47-.82l-.672-2.393z" fill="#565EF5"/></symbol><symbol id="icon-checkbox_checked" viewBox="0 0 8 6"><path d="M1 2.143L3.5 5 7 1" stroke="#F6F7FF"/></symbol><symbol id="icon-close" viewBox="0 0 18 18"><path d="M1 1l16 16m0-16L1 17" stroke="#1F1E25" stroke-width="2" stroke-linecap="round" stroke-linejoin="round"/></symbol><symbol id="icon-list-item" viewBox="0 0 13 10"><path d="M1 4l5.238 5L12 1" stroke="#1F1E25" stroke-width="2" stroke-linecap="round" stroke-linejoin="round"/></symbol><symbol id="icon-logo-full" viewBox="0 0 150 27"><path d="M51.1 26h-3.02V14.24h-3.5l-.26 2c-.08.72-.173 1.453-.28 2.2a66.096 66.096 0 01-.3 2.1 39.205 39.205 0 01-.32 1.74c-.173.827-.407 1.533-.7 2.12-.28.587-.673 1.033-1.18 1.34-.493.307-1.14.46-1.94.46-.52 0-1-.073-1.44-.22V23.5c.173.053.34.1.5.14.173.04.36.06.56.06.387 0 .68-.2.88-.6.213-.413.427-1.18.64-2.3a90.4 90.4 0 00.34-2c.147-.907.307-1.967.48-3.18.187-1.227.36-2.527.52-3.9h9.02V26zm3.602-14.28h2.72v6.9c0 .333-.006.707-.02 1.12l-.04 1.22c-.013.387-.026.727-.04 1.02-.013.28-.026.473-.04.58h.06l6.6-10.84h3.62V26h-2.7v-6.86c0-.36.007-.753.02-1.18l.04-1.26c.027-.4.047-.747.06-1.04.027-.307.047-.507.06-.6h-.08L58.342 26h-3.64V11.72zm25.485 0v2.5h-6V26h-3.02V11.72h9.02zM89.712 26l-1.04-3.4h-5.2l-1.04 3.4h-3.26l5.04-14.34h3.7L92.972 26h-3.26zm-1.76-5.94l-1.04-3.32a76.767 76.767 0 00-.26-.86c-.107-.347-.213-.7-.32-1.06a22.88 22.88 0 01-.26-.94c-.067.267-.16.6-.28 1-.107.387-.213.76-.32 1.12-.093.347-.167.593-.22.74l-1.02 3.32h3.72zM100.503 26V11.72h9.02v2.5h-6v2.98h1.2c1.347 0 2.447.187 3.3.56.867.373 1.507.887 1.92 1.54.413.653.62 1.4.62 2.24 0 1.413-.473 2.513-1.42 3.3-.933.773-2.427 1.16-4.48 1.16h-4.16zm3.02-2.48h1.02c.92 0 1.64-.147 2.16-.44.533-.293.8-.807.8-1.54 0-.76-.287-1.26-.86-1.5s-1.353-.36-2.34-.36h-.78v3.84zm13.974-8.66c1.467 0 2.587.32 3.36.96.787.627 1.18 1.593 1.18 2.9V26h-2.08l-.58-1.48h-.08c-.467.587-.96 1.013-1.48 1.28-.52.267-1.233.4-2.14.4-.973 0-1.78-.28-2.42-.84-.64-.573-.96-1.447-.96-2.62 0-1.16.407-2.013 1.22-2.56.813-.56 2.033-.867 3.66-.92l1.9-.06v-.48c0-.573-.153-.993-.46-1.26-.293-.267-.707-.4-1.24-.4s-1.053.08-1.56.24c-.507.147-1.013.333-1.52.56l-.98-2.02a8.583 8.583 0 011.94-.72 9.542 9.542 0 012.24-.26zm1.58 6.08l-1.16.04c-.96.027-1.627.2-2 .52s-.56.74-.56 1.26c0 .453.133.78.4.98.267.187.613.28 1.04.28.64 0 1.18-.187 1.62-.56.44-.387.66-.927.66-1.62v-.9zm8.99-5.86v4.2h4.16v-4.2h2.98V26h-2.98v-4.5h-4.16V26h-2.98V15.08h2.98zm17.423 0h3.28l-4.32 5.24 4.7 5.68h-3.38l-4.46-5.54V26h-2.98V15.08h2.98v5.3l4.18-5.3z" fill="#1F1E25"/><path d="M16.75 1h-2.917L1 22.341h3.792l1.75-3.048L16.75 1z" fill="#2C36F2"/><path d="M2.75 26h24.5L16.75 7.098 15 10.146l5.25 9.147L22 22.342H1L2.75 26z" fill="#2C36F2"/><path d="M22 22.341l-1.75-3.048H6.542l-1.75 3.049H22z" fill="#2C36F2"/><path d="M27.25 26L29 22.341 16.75 1 6.542 19.293H9.75L15 10.146l1.75-3.048L27.25 26z" fill="#2C36F2"/><path d="M15 10.146l-5.25 9.147h10.5L15 10.146z" fill="#2C36F2"/><path d="M27.25 26H2.75L1 22.341M27.25 26L29 22.341 16.75 1m10.5 25L16.75 7.098 15 10.146M16.75 1h-2.917L1 22.341M16.75 1L6.542 19.293M1 22.342h3.792M15 10.146l-5.25 9.147M15 10.146l5.25 9.147m-10.5 0h10.5m-10.5 0H6.542m13.708 0L22 22.342H4.792m1.75-3.05l-1.75 3.05" stroke="#F6F7FF"/></symbol><symbol id="icon-logo-short" viewBox="0 0 30 27"><path d="M16.75 1h-2.917L1 22.341h3.792l1.75-3.048L16.75 1z" fill="#2C36F2"/><path d="M2.75 26h24.5L16.75 7.098 15 10.146l5.25 9.147L22 22.342H1L2.75 26z" fill="#2C36F2"/><path d="M22 22.341l-1.75-3.048H6.542l-1.75 3.049H22z" fill="#2C36F2"/><path d="M27.25 26L29 22.341 16.75 1 6.542 19.293H9.75L15 10.146l1.75-3.048L27.25 26z" fill="#2C36F2"/><path d="M15 10.146l-5.25 9.147h10.5L15 10.146z" fill="#2C36F2"/><path d="M27.25 26H2.75L1 22.341M27.25 26L29 22.341 16.75 1m10.5 25L16.75 7.098 15 10.146M16.75 1h-2.917L1 22.341M16.75 1L6.542 19.293M1 22.342h3.792M15 10.146l-5.25 9.147M15 10.146l5.25 9.147m-10.5 0h10.5m-10.5 0H6.542m13.708 0L22 22.342H4.792m1.75-3.05l-1.75 3.05" stroke="#F6F7FF"/></symbol><symbol id="icon-menu-close" viewBox="0 0 16 12"><path d="M1 1l12 12m0-12L1 13" stroke="#1F1E25" stroke-width="2" stroke-linecap="round" stroke-linejoin="round"/></symbol><symbol id="icon-menu-open" viewBox="0 0 16 12"><path d="M0 1h16M0 6h16M0 11h16" stroke="#1F1E25" stroke-linejoin="round"/></symbol><symbol id="icon-phone" viewBox="0 0 20 34"><path d="M17.675 0H2.325C1.047 0 0 1.033 0 2.296v29.407C0 32.966 1.047 34 2.325 34h15.35C18.953 34 20 32.968 20 31.703V2.296C20 1.033 18.953 0 17.675 0zM7.545 1.655h4.91a.28.28 0 01.282.28.28.28 0 01-.282.277h-4.91a.28.28 0 01-.282-.278.28.28 0 01.282-.279zM10 32.852a1.155 1.155 0 01-1.163-1.15c0-.635.52-1.148 1.163-1.148.642 0 1.163.513 1.163 1.149 0 .635-.52 1.149-1.163 1.149zm8.382-3.102H1.618V3.642h16.764V29.75z" fill="#565EF5"/></symbol><symbol id="icon-security" viewBox="0 0 28 34"><path d="M27.923 5.312C22.155 5.312 17.736 3.655 14 0 10.262 3.655 5.843 5.312.076 5.312.077 14.83-1.881 28.463 13.999 34c15.882-5.537 13.924-19.17 13.924-28.688zM12.846 22.06l-4.639-4.666 2.077-2.089 2.562 2.577 4.87-4.897 2.076 2.089-6.946 6.986z" fill="#565EF5"/></symbol><symbol id="icon-signin" viewBox="0 0 20 22"><path d="M2.222 14.3h2.222v5.5h13.334V2.2H4.444v5.5H2.222V1.1c0-.292.117-.572.326-.778.208-.206.49-.322.785-.322H18.89c.295 0 .577.116.786.322.208.206.325.486.325.778v19.8c0 .292-.117.572-.325.778a1.117 1.117 0 01-.786.322H3.333c-.294 0-.577-.116-.785-.322a1.095 1.095 0 01-.326-.778v-6.6zM8.89 9.9V6.6l5.555 4.4-5.555 4.4v-3.3H0V9.9h8.889z" fill="#1F1E25"/></symbol><symbol id="icon-vault" viewBox="0 0 34 33"><path d="M4.207 26.063h25.585V4.366H4.207v21.697zm8.661-14.267a3.445 3.445 0 013.338 2.576h7.521v1.684h-7.521a3.445 3.445 0 01-3.338 2.577c-1.899 0-3.443-1.534-3.443-3.419s1.544-3.418 3.443-3.418z" fill="#2C36F2"/><path d="M0 0v30.429h2.48V33h2.968v-2.571h23.104V33h2.968v-2.571H34V0H0zm2.512 27.747V2.682h28.976v25.065H2.512z" fill="#2C36F2"/></symbol></svg>