<svg xmlns="http://www.w3.org/2000/svg" viewBox="0 0 150 27" fill="none"><path d="M51.1 26h-3.02V14.24h-3.5l-.26 2c-.08.72-.173 1.453-.28 2.2a66.096 66.096 0 01-.3 2.1 39.205 39.205 0 01-.32 1.74c-.173.827-.407 1.533-.7 2.12-.28.587-.673 1.033-1.18 1.34-.493.307-1.14.46-1.94.46-.52 0-1-.073-1.44-.22V23.5c.173.053.34.1.5.14.173.04.36.06.56.06.387 0 .68-.2.88-.6.213-.413.427-1.18.64-2.3a90.4 90.4 0 00.34-2c.147-.907.307-1.967.48-3.18.187-1.227.36-2.527.52-3.9h9.02V26zm3.602-14.28h2.72v6.9c0 .333-.006.707-.02 1.12l-.04 1.22c-.013.387-.026.727-.04 1.02-.013.28-.026.473-.04.58h.06l6.6-10.84h3.62V26h-2.7v-6.86c0-.36.007-.753.02-1.18l.04-1.26c.027-.4.047-.747.06-1.04.027-.307.047-.507.06-.6h-.08L58.342 26h-3.64V11.72zm25.485 0v2.5h-6V26h-3.02V11.72h9.02zM89.712 26l-1.04-3.4h-5.2l-1.04 3.4h-3.26l5.04-14.34h3.7L92.972 26h-3.26zm-1.76-5.94l-1.04-3.32a76.767 76.767 0 00-.26-.86c-.107-.347-.213-.7-.32-1.06a22.88 22.88 0 01-.26-.94c-.067.267-.16.6-.28 1-.107.387-.213.76-.32 1.12a10.24 10.24 0 01-.22.74l-1.02 3.32h3.72zM100.503 26V11.72h9.02v2.5h-6v2.98h1.2c1.347 0 2.447.187 3.3.56.867.373 1.507.887 1.92 1.54.413.653.62 1.4.62 2.24 0 1.413-.473 2.513-1.42 3.3-.933.773-2.427 1.16-4.48 1.16h-4.16zm3.02-2.48h1.02c.92 0 1.64-.147 2.16-.44.533-.293.8-.807.8-1.54 0-.76-.287-1.26-.86-1.5s-1.353-.36-2.34-.36h-.78v3.84zm13.974-8.66c1.467 0 2.587.32 3.36.96.787.627 1.18 1.593 1.18 2.9V26h-2.08l-.58-1.48h-.08c-.467.587-.96 1.013-1.48 1.28-.52.267-1.233.4-2.14.4-.973 0-1.78-.28-2.42-.84-.64-.573-.96-1.447-.96-2.62 0-1.16.407-2.013 1.22-2.56.813-.56 2.033-.867 3.66-.92l1.9-.06v-.48c0-.573-.153-.993-.46-1.26-.293-.267-.707-.4-1.24-.4s-1.053.08-1.56.24c-.507.147-1.013.333-1.52.56l-.98-2.02a8.583 8.583 0 011.94-.72 9.542 9.542 0 012.24-.26zm1.58 6.08l-1.16.04c-.96.027-1.627.2-2 .52s-.56.74-.56 1.26c0 .453.133.78.4.98.267.187.613.28 1.04.28.64 0 1.18-.187 1.62-.56.44-.387.66-.927.66-1.62v-.9zm8.99-5.86v4.2h4.16v-4.2h2.98V26h-2.98v-4.5h-4.16V26h-2.98V15.08h2.98zm17.423 0h3.28l-4.32 5.24 4.7 5.68h-3.38l-4.46-5.54V26h-2.98V15.08h2.98v5.3l4.18-5.3z" fill="#1F1E25"/><path d="M.434 22.255L13.544.468 17.04.454l12.544 21.788-2.002 4.19-25.149.023z" fill="#f6f7ff"/><path d="M1.884 21.797L14.118 1.451l1.786-.003L4.505 21.79zM6.812 19.721l-1.157 2.094 15.407-.031-1.125-2.032zM10.607 18.756l4.392-7.644 4.38 7.627z" fill="#2c36f2"/><path d="M7.39 18.74h2.074l7.3-12.66 10.454 18.782 1.219-2.547L16.749 2.018z" fill="#2c36f2"/><path d="M1.788 22.787l1.278 2.657h23.332L16.745 8.073l-1.172 2.02 7.27 12.722z" fill="#2c36f2"/></svg>